<svg width="24" height="25" viewBox="0 0 24 25" fill="none" xmlns="http://www.w3.org/2000/svg">
<path d="M12.0444 0.260498C12.32 0.314397 12.6044 0.350329 12.88 0.422194C14.8888 0.934231 16.1333 2.31763 16.3555 4.4107C16.5866 6.57563 16.1866 8.64174 15.0933 10.5372C14.4177 11.714 13.4044 12.4865 12.0444 12.6662C10.3911 12.8818 9.0044 12.3518 7.99107 10.9774C7.17329 9.87243 6.7644 8.59683 6.55107 7.24936C6.45329 6.59359 6.37329 5.91986 6.37329 5.25511C6.37329 4.249 6.58662 3.27882 7.11996 2.39848C7.77774 1.31152 8.75551 0.700671 9.9644 0.422194C10.2133 0.368295 10.4711 0.32338 10.7288 0.269481H12.0622H12.0444V0.260498Z" fill="white"/>
<path d="M19.1821 14.1484C16.8088 14.1484 14.951 15.1006 13.7866 17.1847C12.6221 19.2778 12.791 21.3708 14.0355 23.4369C13.8044 23.4639 13.5821 23.4908 13.3599 23.5178C11.9644 23.6615 10.5688 23.6525 9.17325 23.4819C7.39547 23.2663 5.65325 22.9339 3.9377 22.4218C3.56436 22.314 3.20881 22.1703 2.84436 22.0356C2.31992 21.8379 2.0977 21.5685 2.15103 21.0025C2.2577 19.8078 2.37325 18.604 2.55992 17.4183C2.67547 16.6637 2.87992 15.9271 3.09325 15.1904C3.43103 14.0586 4.18658 13.3399 5.2977 12.9716C5.98214 12.747 6.63992 12.4596 7.30658 12.1901C7.44881 12.1272 7.51103 12.1991 7.58214 12.2799C8.30214 13.0345 9.16436 13.5465 10.1866 13.7442C12.071 14.1215 13.751 13.7262 15.1466 12.3518C15.3244 12.1811 15.4399 12.1631 15.671 12.2619C16.4355 12.5853 17.2177 12.8638 17.9821 13.1692C18.4355 13.3489 18.8266 13.6364 19.1199 14.0316C19.1377 14.0586 19.1555 14.0945 19.191 14.1394L19.1821 14.1484Z" fill="white"/>
<path d="M18.8621 24.8203C16.2754 24.8203 14.1777 22.6913 14.1866 20.0683C14.1866 17.4542 16.3021 15.3252 18.8799 15.3252C21.4577 15.3252 23.5732 17.4632 23.5732 20.0683C23.5732 22.6734 21.4577 24.8203 18.8621 24.8114V24.8203ZM18.071 20.8857V22.1344C18.0799 22.5476 18.3466 22.871 18.7199 22.9429C19.0843 23.0147 19.4577 22.8261 19.591 22.4847C19.6532 22.332 19.671 22.1613 19.671 21.9996C19.6799 21.6403 19.671 21.272 19.671 20.8947H20.8888C21.351 20.8947 21.7066 20.5534 21.7154 20.1132C21.7332 19.682 21.431 19.3317 20.9688 19.2778C20.7554 19.2508 20.5421 19.2688 20.3288 19.2688H19.671V18.6489C19.671 18.3795 19.6799 18.101 19.6354 17.8405C19.5554 17.3644 19.0843 17.0949 18.631 17.2386C18.2843 17.3464 18.071 17.6518 18.0621 18.0561V19.2688C17.6621 19.2688 17.2888 19.2508 16.9243 19.2688C16.7288 19.2867 16.5154 19.3317 16.3466 19.4305C16.0532 19.6101 15.9554 19.9695 16.0443 20.2929C16.151 20.6432 16.4266 20.8678 16.7999 20.8768C17.2088 20.8857 17.6177 20.8768 18.0621 20.8768L18.071 20.8857Z" fill="white"/>
</svg>
