<svg width="136" height="17" viewBox="0 0 136 17" fill="none" xmlns="http://www.w3.org/2000/svg">
<path d="M1.65057 3.81818L4.6733 12.3892H4.79261L7.81534 3.81818H9.10795L5.36932 14H4.09659L0.357955 3.81818H1.65057ZM10.5348 14V6.36364H11.7081V14H10.5348ZM11.1314 5.09091C10.9027 5.09091 10.7055 5.01302 10.5398 4.85724C10.3774 4.70147 10.2962 4.5142 10.2962 4.29545C10.2962 4.0767 10.3774 3.88944 10.5398 3.73366C10.7055 3.57789 10.9027 3.5 11.1314 3.5C11.3601 3.5 11.5556 3.57789 11.718 3.73366C11.8838 3.88944 11.9666 4.0767 11.9666 4.29545C11.9666 4.5142 11.8838 4.70147 11.718 4.85724C11.5556 5.01302 11.3601 5.09091 11.1314 5.09091ZM17.0588 14.1591C16.323 14.1591 15.6883 13.9967 15.1547 13.6719C14.6243 13.3438 14.215 12.8864 13.9267 12.2997C13.6416 11.7098 13.4991 11.0237 13.4991 10.2415C13.4991 9.45928 13.6416 8.76989 13.9267 8.1733C14.215 7.57339 14.6161 7.10606 15.1298 6.77131C15.6468 6.43324 16.2501 6.2642 16.9395 6.2642C17.3372 6.2642 17.7299 6.33049 18.1177 6.46307C18.5055 6.59564 18.8585 6.81108 19.1767 7.10938C19.4949 7.40436 19.7484 7.79545 19.9373 8.28267C20.1262 8.76989 20.2207 9.36979 20.2207 10.0824V10.5795H14.3343V9.56534H19.0275C19.0275 9.13447 18.9413 8.75 18.769 8.41193C18.6 8.07386 18.358 7.80705 18.0431 7.61151C17.7316 7.41596 17.3637 7.31818 16.9395 7.31818C16.4721 7.31818 16.0678 7.43419 15.7264 7.66619C15.3883 7.89489 15.1281 8.19318 14.9458 8.56108C14.7636 8.92898 14.6724 9.32339 14.6724 9.74432V10.4205C14.6724 10.9972 14.7718 11.486 14.9707 11.8871C15.1729 12.2848 15.4529 12.5881 15.8109 12.7969C16.1689 13.0024 16.5848 13.1051 17.0588 13.1051C17.367 13.1051 17.6454 13.062 17.894 12.9759C18.1459 12.8864 18.363 12.7538 18.5453 12.5781C18.7276 12.3991 18.8684 12.1771 18.9679 11.9119L20.1014 12.2301C19.9821 12.6146 19.7815 12.9527 19.4998 13.2443C19.2181 13.5327 18.8701 13.758 18.4558 13.9205C18.0415 14.0795 17.5758 14.1591 17.0588 14.1591ZM23.7356 14L21.4089 6.36364H22.6419L24.2924 12.2102H24.372L26.0027 6.36364H27.2555L28.8663 12.1903H28.9458L30.5964 6.36364H31.8294L29.5027 14H28.3493L26.6788 8.13352H26.5595L24.889 14H23.7356ZM39.5652 14.179C39.0813 14.179 38.6421 14.0878 38.2477 13.9055C37.8533 13.7199 37.5401 13.4531 37.3081 13.1051C37.0761 12.7538 36.96 12.3295 36.96 11.8324C36.96 11.3949 37.0462 11.0402 37.2186 10.7685C37.3909 10.4934 37.6213 10.2779 37.9096 10.1222C38.198 9.96638 38.5162 9.85038 38.8642 9.77415C39.2155 9.6946 39.5685 9.63163 39.9231 9.58523C40.3871 9.52557 40.7633 9.48082 41.0517 9.45099C41.3433 9.41785 41.5555 9.36316 41.688 9.28693C41.8239 9.2107 41.8919 9.07812 41.8919 8.8892V8.84943C41.8919 8.3589 41.7576 7.97775 41.4892 7.70597C41.224 7.43419 40.8213 7.2983 40.2811 7.2983C39.7209 7.2983 39.2818 7.42093 38.9636 7.66619C38.6454 7.91146 38.4217 8.1733 38.2924 8.4517L37.1788 8.05398C37.3777 7.58996 37.6428 7.22869 37.9743 6.97017C38.309 6.70833 38.6736 6.52604 39.068 6.4233C39.4657 6.31723 39.8568 6.2642 40.2413 6.2642C40.4866 6.2642 40.7683 6.29403 41.0865 6.35369C41.408 6.41004 41.7179 6.5277 42.0162 6.70668C42.3178 6.88565 42.568 7.15578 42.7669 7.51705C42.9657 7.87831 43.0652 8.36222 43.0652 8.96875V14H41.8919V12.9659H41.8322C41.7527 13.1316 41.6201 13.3089 41.4345 13.4979C41.2489 13.6868 41.002 13.8475 40.6937 13.9801C40.3855 14.1127 40.0093 14.179 39.5652 14.179ZM39.7441 13.125C40.2082 13.125 40.5993 13.0339 40.9174 12.8516C41.2389 12.6693 41.4809 12.4339 41.6433 12.1456C41.809 11.8572 41.8919 11.554 41.8919 11.2358V10.1619C41.8422 10.2216 41.7328 10.2763 41.5637 10.326C41.398 10.3724 41.2058 10.4138 40.987 10.4503C40.7716 10.4834 40.5611 10.5133 40.3556 10.5398C40.1535 10.563 39.9894 10.5829 39.8635 10.5994C39.5585 10.6392 39.2735 10.7038 39.0083 10.7933C38.7465 10.8795 38.5344 11.0104 38.372 11.1861C38.2129 11.3584 38.1333 11.5937 38.1333 11.892C38.1333 12.2997 38.2842 12.608 38.5858 12.8168C38.8907 13.0223 39.2768 13.125 39.7441 13.125ZM46.38 3.81818V14H45.2067V3.81818H46.38ZM49.7022 3.81818V14H48.5289V3.81818H49.7022ZM57.1808 3.81818V14H55.9478V3.81818H57.1808ZM60.6671 9.40625V14H59.4938V6.36364H60.6273V7.55682H60.7267C60.9057 7.16903 61.1775 6.85748 61.5421 6.62216C61.9067 6.38352 62.3773 6.2642 62.954 6.2642C63.4711 6.2642 63.9235 6.37027 64.3113 6.58239C64.699 6.79119 65.0007 7.10938 65.2161 7.53693C65.4315 7.96117 65.5392 8.49811 65.5392 9.14773V14H64.3659V9.22727C64.3659 8.62737 64.2102 8.16004 63.8986 7.82528C63.5871 7.48722 63.1595 7.31818 62.6159 7.31818C62.2414 7.31818 61.9067 7.39938 61.6117 7.56179C61.32 7.72419 61.0897 7.96117 60.9206 8.27273C60.7516 8.58428 60.6671 8.96212 60.6671 9.40625ZM71.0838 6.36364V7.35795H66.9673V6.36364H71.0838ZM68.2003 14V5.30966C68.2003 4.87216 68.303 4.50758 68.5085 4.21591C68.714 3.92424 68.9808 3.70549 69.3089 3.55966C69.6371 3.41383 69.9834 3.34091 70.348 3.34091C70.6364 3.34091 70.8717 3.36411 71.054 3.41051C71.2363 3.45691 71.3722 3.5 71.4616 3.53977L71.1236 4.55398C71.0639 4.53409 70.9811 4.50923 70.875 4.4794C70.7723 4.44957 70.6364 4.43466 70.4673 4.43466C70.0795 4.43466 69.7995 4.53243 69.6271 4.72798C69.4581 4.92353 69.3736 5.21023 69.3736 5.58807V14H68.2003ZM73.9015 3.81818V14H72.7282V3.81818H73.9015ZM80.8629 10.8778V6.36364H82.0362V14H80.8629V12.7074H80.7834C80.6044 13.0952 80.326 13.425 79.9482 13.6967C79.5703 13.9652 79.093 14.0994 78.5163 14.0994C78.0391 14.0994 77.6148 13.995 77.2436 13.7862C76.8724 13.5741 76.5807 13.2559 76.3686 12.8317C76.1565 12.4041 76.0504 11.8655 76.0504 11.2159V6.36364H77.2237V11.1364C77.2237 11.6932 77.3795 12.1373 77.6911 12.4688C78.0059 12.8002 78.407 12.9659 78.8942 12.9659C79.1858 12.9659 79.4825 12.8913 79.7841 12.7422C80.089 12.593 80.3442 12.3643 80.5497 12.0561C80.7585 11.7479 80.8629 11.3551 80.8629 10.8778ZM87.3869 14.1591C86.6511 14.1591 86.0164 13.9967 85.4828 13.6719C84.9525 13.3438 84.5431 12.8864 84.2548 12.2997C83.9698 11.7098 83.8272 11.0237 83.8272 10.2415C83.8272 9.45928 83.9698 8.76989 84.2548 8.1733C84.5431 7.57339 84.9442 7.10606 85.4579 6.77131C85.975 6.43324 86.5782 6.2642 87.2676 6.2642C87.6653 6.2642 88.0581 6.33049 88.4458 6.46307C88.8336 6.59564 89.1866 6.81108 89.5048 7.10938C89.823 7.40436 90.0765 7.79545 90.2654 8.28267C90.4544 8.76989 90.5488 9.36979 90.5488 10.0824V10.5795H84.6625V9.56534H89.3556C89.3556 9.13447 89.2695 8.75 89.0971 8.41193C88.9281 8.07386 88.6861 7.80705 88.3713 7.61151C88.0597 7.41596 87.6918 7.31818 87.2676 7.31818C86.8002 7.31818 86.3959 7.43419 86.0545 7.66619C85.7164 7.89489 85.4563 8.19318 85.274 8.56108C85.0917 8.92898 85.0005 9.32339 85.0005 9.74432V10.4205C85.0005 10.9972 85.1 11.486 85.2988 11.8871C85.501 12.2848 85.7811 12.5881 86.139 12.7969C86.497 13.0024 86.9129 13.1051 87.3869 13.1051C87.6951 13.1051 87.9735 13.062 88.2221 12.9759C88.474 12.8864 88.6911 12.7538 88.8734 12.5781C89.0557 12.3991 89.1966 12.1771 89.296 11.9119L90.4295 12.2301C90.3102 12.6146 90.1097 12.9527 89.8279 13.2443C89.5462 13.5327 89.1982 13.758 88.7839 13.9205C88.3696 14.0795 87.9039 14.1591 87.3869 14.1591ZM93.5069 9.40625V14H92.3336V6.36364H93.4672V7.55682H93.5666C93.7456 7.16903 94.0173 6.85748 94.3819 6.62216C94.7465 6.38352 95.2172 6.2642 95.7939 6.2642C96.3109 6.2642 96.7633 6.37027 97.1511 6.58239C97.5389 6.79119 97.8405 7.10938 98.0559 7.53693C98.2714 7.96117 98.3791 8.49811 98.3791 9.14773V14H97.2058V9.22727C97.2058 8.62737 97.05 8.16004 96.7385 7.82528C96.4269 7.48722 95.9993 7.31818 95.4558 7.31818C95.0813 7.31818 94.7465 7.39938 94.4515 7.56179C94.1599 7.72419 93.9295 7.96117 93.7605 8.27273C93.5914 8.58428 93.5069 8.96212 93.5069 9.40625ZM103.625 14.1591C102.909 14.1591 102.293 13.9901 101.776 13.652C101.259 13.3139 100.861 12.8482 100.583 12.255C100.304 11.6617 100.165 10.9839 100.165 10.2216C100.165 9.44602 100.308 8.7616 100.593 8.16832C100.881 7.57173 101.282 7.10606 101.796 6.77131C102.313 6.43324 102.916 6.2642 103.605 6.2642C104.142 6.2642 104.626 6.36364 105.057 6.5625C105.488 6.76136 105.841 7.03977 106.116 7.39773C106.391 7.75568 106.562 8.1733 106.628 8.65057H105.455C105.365 8.30256 105.167 7.99432 104.858 7.72585C104.553 7.45407 104.142 7.31818 103.625 7.31818C103.168 7.31818 102.767 7.4375 102.422 7.67614C102.081 7.91146 101.814 8.24455 101.622 8.67543C101.433 9.10298 101.338 9.60511 101.338 10.1818C101.338 10.7718 101.431 11.2855 101.617 11.723C101.806 12.1605 102.071 12.5002 102.412 12.7422C102.757 12.9841 103.161 13.1051 103.625 13.1051C103.93 13.1051 104.207 13.0521 104.456 12.946C104.704 12.84 104.915 12.6875 105.087 12.4886C105.259 12.2898 105.382 12.0511 105.455 11.7727H106.628C106.562 12.2235 106.398 12.6295 106.136 12.9908C105.877 13.3487 105.534 13.6338 105.107 13.8459C104.683 14.0547 104.189 14.1591 103.625 14.1591ZM111.545 14.1591C110.809 14.1591 110.175 13.9967 109.641 13.6719C109.111 13.3438 108.701 12.8864 108.413 12.2997C108.128 11.7098 107.985 11.0237 107.985 10.2415C107.985 9.45928 108.128 8.76989 108.413 8.1733C108.701 7.57339 109.102 7.10606 109.616 6.77131C110.133 6.43324 110.736 6.2642 111.426 6.2642C111.824 6.2642 112.216 6.33049 112.604 6.46307C112.992 6.59564 113.345 6.81108 113.663 7.10938C113.981 7.40436 114.235 7.79545 114.424 8.28267C114.613 8.76989 114.707 9.36979 114.707 10.0824V10.5795H108.821V9.56534H113.514C113.514 9.13447 113.428 8.75 113.255 8.41193C113.086 8.07386 112.844 7.80705 112.529 7.61151C112.218 7.41596 111.85 7.31818 111.426 7.31818C110.958 7.31818 110.554 7.43419 110.213 7.66619C109.875 7.89489 109.614 8.19318 109.432 8.56108C109.25 8.92898 109.159 9.32339 109.159 9.74432V10.4205C109.159 10.9972 109.258 11.486 109.457 11.8871C109.659 12.2848 109.939 12.5881 110.297 12.7969C110.655 13.0024 111.071 13.1051 111.545 13.1051C111.853 13.1051 112.132 13.062 112.38 12.9759C112.632 12.8864 112.849 12.7538 113.032 12.5781C113.214 12.3991 113.355 12.1771 113.454 11.9119L114.588 12.2301C114.468 12.6146 114.268 12.9527 113.986 13.2443C113.704 13.5327 113.356 13.758 112.942 13.9205C112.528 14.0795 112.062 14.1591 111.545 14.1591ZM116.492 14V6.36364H117.625V7.51705H117.705C117.844 7.1392 118.096 6.83262 118.461 6.5973C118.825 6.36198 119.236 6.24432 119.694 6.24432C119.78 6.24432 119.887 6.24597 120.017 6.24929C120.146 6.2526 120.244 6.25758 120.31 6.2642V7.45739C120.27 7.44744 120.179 7.43253 120.037 7.41264C119.897 7.38944 119.75 7.37784 119.594 7.37784C119.223 7.37784 118.891 7.45573 118.6 7.61151C118.311 7.76397 118.083 7.97609 117.914 8.24787C117.748 8.51634 117.665 8.82292 117.665 9.16761V14H116.492Z" fill="white"/>
<path d="M125 9L130 14L135 9" stroke="white" stroke-linejoin="round"/>
<path d="M125 5.25L130 10.25L135 5.25" stroke="white" stroke-linejoin="round"/>
</svg>
