<svg width="24" height="24" viewBox="0 0 24 24" fill="none" xmlns="http://www.w3.org/2000/svg">
<g clip-path="url(#clip0_86_938)">
<path d="M-0.0532227 10.6222C0.0623329 10.1689 0.231222 9.75112 0.542333 9.39556C1.16456 8.67556 2.17789 8.38223 3.08456 8.67556C4.00011 8.9689 4.72011 9.81334 4.74678 10.7467C4.79122 12.1333 4.77344 13.52 4.77344 14.9067V15.7778C4.87122 15.7778 4.96011 15.7867 5.04011 15.7867C5.82233 15.7867 6.60456 15.7867 7.39567 15.7956C9.16456 15.8311 10.7112 17.3067 10.7646 19.0756C10.8179 20.7467 10.7912 22.4178 10.8001 24.0889C10.8001 24.1156 10.8001 24.1511 10.8001 24.1956H5.99122V20.5956H5.71567C4.92455 20.5956 4.13344 20.5956 3.34233 20.5867C1.69789 20.56 0.222333 19.2267 0.00899957 17.5911C0.00899957 17.5378 -0.0176671 17.4933 -0.0354449 17.44V10.6133L-0.0532227 10.6222Z" fill="white"/>
<path d="M12.3647 0.13334C12.7913 0.266673 13.2002 0.417784 13.5469 0.711117C14.6224 1.60001 14.6847 3.31556 13.6624 4.26667C12.978 4.89778 12.1691 5.12001 11.2713 4.83556C10.3736 4.55112 9.81355 3.92001 9.618 2.98667C9.35133 1.74223 10.1869 0.480006 11.458 0.177784C11.5113 0.177784 11.5558 0.142228 11.6091 0.124451H12.3647V0.13334Z" fill="white"/>
<path d="M-0.0532227 4.60445C0.0623329 4.15112 0.240111 3.72445 0.560111 3.35112C1.609 2.12445 3.63567 2.33779 4.44455 3.73334C5.33344 5.28001 4.30233 7.22668 2.489 7.36001C1.36011 7.44001 0.249 6.59557 0.000110671 5.45779C0.000110671 5.40445 -0.0354449 5.36001 -0.0532227 5.30668V4.60445Z" fill="white"/>
<path d="M18.018 24.2133H13.2002C13.2002 24.1244 13.2002 24.0444 13.2002 23.9733V19.5555C13.2002 18.2755 13.6446 17.2178 14.7024 16.4533C15.3602 15.9822 16.1069 15.7867 16.9158 15.7955H19.2269V11.12C19.2269 10.2933 19.5202 9.61777 20.1602 9.08444C21.2358 8.19555 22.9691 8.49777 23.6802 9.69777C23.9291 10.1244 24.0535 10.5689 24.0535 11.0578V16.9867C24.0535 18.7555 22.9602 20.1333 21.2446 20.5244C20.9424 20.5955 20.6224 20.6044 20.3113 20.6044C19.6446 20.6133 18.978 20.6044 18.3113 20.6044H18.0358V24.2044H18.0269L18.018 24.2133Z" fill="white"/>
<path d="M8.41759 10.96C8.41759 10.0089 8.35536 9.07556 8.43536 8.15112C8.53314 7.05778 9.61759 6.16889 10.7109 6.16H13.2265C14.4531 6.16 15.5287 7.14667 15.5998 8.38223C15.6531 9.23556 15.5998 10.0889 15.5998 10.96H8.4087H8.41759Z" fill="white"/>
<path d="M18.0002 12.1956V14.5689H5.98242V12.1956H18.0002Z" fill="white"/>
<path d="M24.0357 4.9511C24.0357 6.26666 22.9513 7.36888 21.6357 7.36888C20.3201 7.36888 19.2001 6.25777 19.209 4.94221C19.209 3.61777 20.3113 2.53333 21.6268 2.53333C22.9424 2.53333 24.0357 3.62666 24.0357 4.94221V4.9511Z" fill="white"/>
</g>
<defs>
<clipPath id="clip0_86_938">
<rect width="24" height="24" fill="white"/>
</clipPath>
</defs>
</svg>
