<svg width="28" height="23" viewBox="0 0 28 23" fill="none" xmlns="http://www.w3.org/2000/svg">
<g clip-path="url(#clip0_86_250)">
<path d="M13.7099 22.32C11.9399 22.3 10.1599 22.22 8.4599 21.67C7.8999 21.49 7.3699 21.2 6.8499 20.91C6.4599 20.69 6.3299 20.31 6.3999 19.86C6.6499 18.22 6.8199 16.56 7.1399 14.93C7.6799 12.22 10.1599 10.24 12.9199 10.21C13.9099 10.2 14.9099 10.14 15.8899 10.4C18.2599 11.02 20.0399 13.02 20.3799 15.48C20.5799 16.93 20.7799 18.38 20.9999 19.82C21.0799 20.33 20.8999 20.69 20.4899 20.97C19.8199 21.43 19.0699 21.67 18.2899 21.86C16.7799 22.23 15.2399 22.3 13.6999 22.32H13.7099Z" fill="white"/>
<path d="M13.7102 9.56C11.0602 9.56 8.93021 7.43 8.93021 4.78C8.92021 2.15 11.0802 0 13.7102 0C16.3402 0 18.4802 2.15 18.4802 4.77C18.4802 7.42 16.3502 9.55 13.7002 9.56H13.7102Z" fill="white"/>
<path d="M19.3999 10.89C22.3699 9.09001 26.3899 10.91 27.0799 14.36C27.1899 14.9 27.2699 15.44 27.3799 15.97C27.4699 16.41 27.3199 16.77 26.9999 17.07C26.3499 17.68 25.5499 18.02 24.6899 18.19C23.9099 18.34 23.1099 18.38 22.3299 18.48C22.1099 18.51 22.0899 18.39 22.0699 18.22C21.8999 17.06 21.7499 15.89 21.5399 14.74C21.2799 13.34 20.5999 12.15 19.6099 11.13C19.5499 11.07 19.4899 11 19.4299 10.94C19.4299 10.94 19.4299 10.92 19.4099 10.89H19.3999Z" fill="white"/>
<path d="M8 10.89C7.66 11.31 7.3 11.7 7 12.13C6.23 13.2 5.87 14.42 5.71 15.71C5.6 16.57 5.47 17.42 5.34 18.28C5.33 18.36 5.2 18.48 5.13 18.48C3.89 18.45 2.66 18.33 1.53 17.79C1.11 17.59 0.719999 17.29 0.349999 16.99C0.089999 16.78 -0.040001 16.48 0.029999 16.13C0.179999 15.33 0.269999 14.51 0.519999 13.74C1.53 10.64 5.26 9.23999 8.01 10.89H8Z" fill="white"/>
<path d="M5.69021 9.55999C3.91021 9.55999 2.60021 8.61999 2.11021 7.20999C1.62021 5.79999 2.07021 4.24999 3.24021 3.30999C4.39021 2.38999 6.01021 2.29999 7.27021 3.07999C7.44021 3.18999 7.52021 3.27999 7.4702 3.50999C7.1502 5.03999 7.38021 6.49999 8.13021 7.86999C8.23021 8.05999 8.2202 8.17999 8.0802 8.32999C7.3702 9.13999 6.48021 9.54999 5.68021 9.55999H5.69021Z" fill="white"/>
<path d="M25.4898 5.83C25.4798 7.56 24.5698 8.86 23.1898 9.36C21.8098 9.86 20.2998 9.46 19.3298 8.36C19.1698 8.18 19.1698 8.05 19.2798 7.85C20.0198 6.49 20.2498 5.04 19.9298 3.52C19.8898 3.32 19.9398 3.21 20.1098 3.11C21.2898 2.42 22.4898 2.36 23.6898 3.02C24.8698 3.68 25.4498 4.73 25.4898 5.84V5.83Z" fill="white"/>
</g>
<defs>
<clipPath id="clip0_86_250">
<rect width="27.4" height="22.32" fill="white"/>
</clipPath>
</defs>
</svg>
